<?xml version="1.0" encoding="UTF-8"?>
<!DOCTYPE svg PUBLIC "-//W3C//DTD SVG 1.1//EN" "http://www.w3.org/Graphics/SVG/1.1/DTD/svg11.dtd">
<svg xmlns="http://www.w3.org/2000/svg" version="1.1" width="512px" height="512px" style="shape-rendering:geometricPrecision; text-rendering:geometricPrecision; image-rendering:optimizeQuality; fill-rule:evenodd; clip-rule:evenodd" xmlns:xlink="http://www.w3.org/1999/xlink">
<g><path style="opacity:0.994" fill="#418df4" d="M 251.5,5.5 C 263.583,3.3665 274.25,6.19983 283.5,14C 305.362,35.5281 326.862,57.3615 348,79.5C 353.28,88.0814 354.78,97.2481 352.5,107C 359.771,114.711 363.937,123.878 365,134.5C 365.5,154.497 365.667,174.497 365.5,194.5C 382.837,194.333 400.17,194.5 417.5,195C 438.783,199.616 452.283,212.449 458,233.5C 459.639,308.145 459.972,382.812 459,457.5C 456.677,482.826 443.177,498.659 418.5,505C 311.833,505.667 205.167,505.667 98.5,505C 70.049,497.882 54.549,479.716 52,450.5C 51.3333,349.5 51.3333,248.5 52,147.5C 53.6834,120.806 67.1834,102.973 92.5,94C 95.7895,93.1184 99.1228,92.4517 102.5,92C 121.833,91.6667 141.167,91.3333 160.5,91C 187.167,64.3333 213.833,37.6667 240.5,11C 244.259,9.12073 247.925,7.28739 251.5,5.5 Z"/></g>
<g><path style="opacity:1" fill="#fefefe" d="M 307.5,142.5 C 246.664,142.832 185.998,142.499 125.5,141.5C 165.299,101.201 205.299,61.0346 245.5,21C 255.139,15.044 264.806,15.044 274.5,21C 295.667,42.1667 316.833,63.3333 338,84.5C 343.644,93.2343 343.977,102.234 339,111.5C 328.632,122.035 318.132,132.369 307.5,142.5 Z"/></g>
<g><path style="opacity:1" fill="#b7d9fe" d="M 100.5,102.5 C 116.514,102.167 132.514,102.501 148.5,103.5C 135.681,116.819 122.681,129.986 109.5,143C 103.167,143.333 96.8333,143.667 90.5,144C 87.8333,147 87.8333,150 90.5,153C 170.167,153.667 249.833,153.667 329.5,153C 332.428,151.124 333.094,148.624 331.5,145.5C 328.78,143.889 325.78,143.056 322.5,143C 330.681,134.652 339.014,126.486 347.5,118.5C 350.471,122.776 352.637,127.442 354,132.5C 354.5,153.164 354.667,173.831 354.5,194.5C 269.499,194.667 184.499,194.5 99.5,194C 73.8739,185.929 61.7072,168.429 63,141.5C 67.9148,121.087 80.4148,108.087 100.5,102.5 Z"/></g>
<g><path style="opacity:1" fill="#d8e7fc" d="M 125.5,141.5 C 185.998,142.499 246.664,142.832 307.5,142.5C 246.335,143.665 185.001,143.832 123.5,143C 124.044,142.283 124.711,141.783 125.5,141.5 Z"/></g>
<g><path style="opacity:1" fill="#8fbffa" d="M 64.5,183.5 C 63.5006,273.665 63.1673,363.998 63.5,454.5C 62.3342,363.668 62.1676,272.668 63,181.5C 63.7172,182.044 64.2172,182.711 64.5,183.5 Z"/></g>
<g><path style="opacity:1" fill="#b7d9fe" d="M 64.5,183.5 C 74.2092,195.014 86.5425,202.18 101.5,205C 189.167,205.333 276.833,205.667 364.5,206C 380.226,210.059 390.392,219.892 395,235.5C 395.5,258.164 395.667,280.831 395.5,303.5C 378.497,303.333 361.497,303.5 344.5,304C 315.134,311.564 302.301,330.397 306,360.5C 311.14,378.974 322.974,390.807 341.5,396C 359.497,396.5 377.497,396.667 395.5,396.5C 395.667,419.169 395.5,441.836 395,464.5C 389.88,481.286 378.713,491.452 361.5,495C 275.5,495.667 189.5,495.667 103.5,495C 80.5972,490.931 67.2638,477.431 63.5,454.5C 63.1673,363.998 63.5006,273.665 64.5,183.5 Z"/></g>
<g><path style="opacity:1" fill="#88b7f7" d="M 413.5,205.5 C 404.983,205.174 396.65,205.507 388.5,206.5C 387.957,206.44 387.624,206.107 387.5,205.5C 396.325,204.179 404.991,204.179 413.5,205.5 Z"/></g>
<g><path style="opacity:1" fill="#fdfefe" d="M 388.5,206.5 C 396.65,205.507 404.983,205.174 413.5,205.5C 432.642,208.491 444.142,219.491 448,238.5C 448.5,260.164 448.667,281.831 448.5,303.5C 434.5,303.5 420.5,303.5 406.5,303.5C 406.667,281.164 406.5,258.831 406,236.5C 403.478,224.442 397.645,214.442 388.5,206.5 Z"/></g>
<g><path style="opacity:1" fill="#b7d9fe" d="M 346.5,314.5 C 380.167,314.5 413.833,314.5 447.5,314.5C 447.5,338.167 447.5,361.833 447.5,385.5C 413.833,385.5 380.167,385.5 346.5,385.5C 326.908,381.569 316.575,369.569 315.5,349.5C 317.026,329.977 327.359,318.31 346.5,314.5 Z"/></g>
<g><path style="opacity:1" fill="#91c0fb" d="M 346.5,314.5 C 380.329,313.502 414.329,313.168 448.5,313.5C 448.5,337.833 448.5,362.167 448.5,386.5C 414.329,386.832 380.329,386.498 346.5,385.5C 380.167,385.5 413.833,385.5 447.5,385.5C 447.5,361.833 447.5,338.167 447.5,314.5C 413.833,314.5 380.167,314.5 346.5,314.5 Z"/></g>
<g><path style="opacity:1" fill="#458ef4" d="M 348.5,331.5 C 363.977,331.476 371.477,339.142 371,354.5C 363.39,369.852 352.723,372.518 339,362.5C 330.63,348.583 333.797,338.25 348.5,331.5 Z"/></g>
<g><path style="opacity:1" fill="#fafcfe" d="M 349.5,342.5 C 359.554,342.379 362.554,346.879 358.5,356C 348.766,359.922 344.6,356.756 346,346.5C 346.69,344.65 347.856,343.316 349.5,342.5 Z"/></g>
<g><path style="opacity:1" fill="#fefefe" d="M 406.5,397.5 C 420.167,397.5 433.833,397.5 447.5,397.5C 447.5,418.5 447.5,439.5 447.5,460.5C 444.493,480.174 433.16,491.507 413.5,494.5C 404.983,494.826 396.65,494.493 388.5,493.5C 397.936,485.304 403.769,474.971 406,462.5C 406.5,440.836 406.667,419.169 406.5,397.5 Z"/></g>
<g><path style="opacity:1" fill="#c5dcfb" d="M 406.5,397.5 C 420.323,396.504 434.323,396.171 448.5,396.5C 448.831,418.007 448.497,439.34 447.5,460.5C 447.5,439.5 447.5,418.5 447.5,397.5C 433.833,397.5 420.167,397.5 406.5,397.5 Z"/></g>
<g><path style="opacity:1" fill="#abccfa" d="M 388.5,493.5 C 396.65,494.493 404.983,494.826 413.5,494.5C 404.991,495.821 396.325,495.821 387.5,494.5C 387.624,493.893 387.957,493.56 388.5,493.5 Z"/></g>
</svg>
